<svg id="visual" viewBox="0 0 960 540" width="960" height="540" xmlns="http://www.w3.org/2000/svg" xmlns:xlink="http://www.w3.org/1999/xlink" version="1.1"><rect x="0" y="0" width="960" height="540" fill="#00a66a"></rect><path d="M0 344L10 339.7C20 335.3 40 326.7 60 327.3C80 328 100 338 120 360.5C140 383 160 418 180 429.8C200 441.7 220 430.3 240 430.7C260 431 280 443 300 440.2C320 437.3 340 419.7 360 411C380 402.3 400 402.7 420 409.3C440 416 460 429 480 436C500 443 520 444 540 437.8C560 431.7 580 418.3 600 396.3C620 374.3 640 343.7 660 350.7C680 357.7 700 402.3 720 422.8C740 443.3 760 439.7 780 434C800 428.3 820 420.7 840 423.5C860 426.3 880 439.7 900 427.5C920 415.3 940 377.7 950 358.8L960 340" fill="none" stroke-linecap="round" stroke-linejoin="miter" stroke="#f04b25" stroke-width="20"></path></svg>