<svg id="visual" viewBox="0 0 1920 1080" width="1920" height="1080" xmlns="http://www.w3.org/2000/svg" xmlns:xlink="http://www.w3.org/1999/xlink" version="1.1"><path d="M0 163L17.8 164.5C35.7 166 71.3 169 106.8 163.3C142.3 157.7 177.7 143.3 213.2 147.2C248.7 151 284.3 173 320 163C355.7 153 391.3 111 426.8 96.3C462.3 81.7 497.7 94.3 533.2 94.2C568.7 94 604.3 81 640 85.3C675.7 89.7 711.3 111.3 746.8 130.7C782.3 150 817.7 167 853.2 165.2C888.7 163.3 924.3 142.7 960 145.3C995.7 148 1031.3 174 1066.8 168.2C1102.3 162.3 1137.7 124.7 1173.2 114C1208.7 103.3 1244.3 119.7 1280 119.8C1315.7 120 1351.3 104 1386.8 109.8C1422.3 115.7 1457.7 143.3 1493.2 156.2C1528.7 169 1564.3 167 1600 165.2C1635.7 163.3 1671.3 161.7 1706.8 151C1742.3 140.3 1777.7 120.7 1813.2 113.8C1848.7 107 1884.3 113 1902.2 116L1920 119L1920 1081L1902.2 1081C1884.3 1081 1848.7 1081 1813.2 1081C1777.7 1081 1742.3 1081 1706.8 1081C1671.3 1081 1635.7 1081 1600 1081C1564.3 1081 1528.7 1081 1493.2 1081C1457.7 1081 1422.3 1081 1386.8 1081C1351.3 1081 1315.7 1081 1280 1081C1244.3 1081 1208.7 1081 1173.2 1081C1137.7 1081 1102.3 1081 1066.8 1081C1031.3 1081 995.7 1081 960 1081C924.3 1081 888.7 1081 853.2 1081C817.7 1081 782.3 1081 746.8 1081C711.3 1081 675.7 1081 640 1081C604.3 1081 568.7 1081 533.2 1081C497.7 1081 462.3 1081 426.8 1081C391.3 1081 355.7 1081 320 1081C284.3 1081 248.7 1081 213.2 1081C177.7 1081 142.3 1081 106.8 1081C71.3 1081 35.7 1081 17.8 1081L0 1081Z" fill="#00a66a"></path><path d="M0 254L17.8 254.3C35.7 254.7 71.3 255.3 106.8 241C142.3 226.7 177.7 197.3 213.2 184C248.7 170.7 284.3 173.3 320 183.3C355.7 193.3 391.3 210.7 426.8 217.5C462.3 224.3 497.7 220.7 533.2 209C568.7 197.3 604.3 177.7 640 174.5C675.7 171.3 711.3 184.7 746.8 193.2C782.3 201.7 817.7 205.3 853.2 219.5C888.7 233.7 924.3 258.3 960 257.5C995.7 256.7 1031.3 230.3 1066.8 209C1102.3 187.7 1137.7 171.3 1173.2 177.7C1208.7 184 1244.3 213 1280 215.7C1315.7 218.3 1351.3 194.7 1386.8 193.3C1422.3 192 1457.7 213 1493.2 228.2C1528.7 243.3 1564.3 252.7 1600 256.5C1635.7 260.3 1671.3 258.7 1706.8 248.2C1742.3 237.7 1777.7 218.3 1813.2 209C1848.7 199.7 1884.3 200.3 1902.2 200.7L1920 201L1920 1081L1902.2 1081C1884.3 1081 1848.7 1081 1813.2 1081C1777.7 1081 1742.3 1081 1706.8 1081C1671.3 1081 1635.7 1081 1600 1081C1564.3 1081 1528.7 1081 1493.2 1081C1457.7 1081 1422.3 1081 1386.8 1081C1351.3 1081 1315.7 1081 1280 1081C1244.3 1081 1208.7 1081 1173.2 1081C1137.7 1081 1102.3 1081 1066.8 1081C1031.3 1081 995.7 1081 960 1081C924.3 1081 888.7 1081 853.2 1081C817.7 1081 782.3 1081 746.8 1081C711.3 1081 675.7 1081 640 1081C604.3 1081 568.7 1081 533.2 1081C497.7 1081 462.3 1081 426.8 1081C391.3 1081 355.7 1081 320 1081C284.3 1081 248.7 1081 213.2 1081C177.7 1081 142.3 1081 106.8 1081C71.3 1081 35.7 1081 17.8 1081L0 1081Z" fill="#18a973"></path><path d="M0 296L17.8 298.7C35.7 301.3 71.3 306.7 106.8 312.7C142.3 318.7 177.7 325.3 213.2 316.3C248.7 307.3 284.3 282.7 320 278C355.7 273.3 391.3 288.7 426.8 286.3C462.3 284 497.7 264 533.2 269.5C568.7 275 604.3 306 640 313C675.7 320 711.3 303 746.8 294.5C782.3 286 817.7 286 853.2 298.3C888.7 310.7 924.3 335.3 960 330.5C995.7 325.7 1031.3 291.3 1066.8 282.5C1102.3 273.7 1137.7 290.3 1173.2 288.8C1208.7 287.3 1244.3 267.7 1280 257.8C1315.7 248 1351.3 248 1386.8 250C1422.3 252 1457.7 256 1493.2 256.5C1528.7 257 1564.3 254 1600 254.3C1635.7 254.7 1671.3 258.3 1706.8 263.8C1742.3 269.3 1777.7 276.7 1813.2 274.3C1848.7 272 1884.3 260 1902.2 254L1920 248L1920 1081L1902.2 1081C1884.3 1081 1848.7 1081 1813.2 1081C1777.7 1081 1742.3 1081 1706.8 1081C1671.3 1081 1635.7 1081 1600 1081C1564.3 1081 1528.7 1081 1493.2 1081C1457.7 1081 1422.3 1081 1386.8 1081C1351.3 1081 1315.7 1081 1280 1081C1244.3 1081 1208.7 1081 1173.2 1081C1137.7 1081 1102.3 1081 1066.8 1081C1031.3 1081 995.7 1081 960 1081C924.3 1081 888.7 1081 853.2 1081C817.7 1081 782.3 1081 746.8 1081C711.3 1081 675.7 1081 640 1081C604.3 1081 568.7 1081 533.2 1081C497.7 1081 462.3 1081 426.8 1081C391.3 1081 355.7 1081 320 1081C284.3 1081 248.7 1081 213.2 1081C177.7 1081 142.3 1081 106.8 1081C71.3 1081 35.7 1081 17.8 1081L0 1081Z" fill="#27ac7b"></path><path d="M0 386L17.8 386C35.7 386 71.3 386 106.8 378.2C142.3 370.3 177.7 354.7 213.2 345.5C248.7 336.3 284.3 333.7 320 339.2C355.7 344.7 391.3 358.3 426.8 375.5C462.3 392.7 497.7 413.3 533.2 421.8C568.7 430.3 604.3 426.7 640 426C675.7 425.3 711.3 427.7 746.8 416.5C782.3 405.3 817.7 380.7 853.2 369.8C888.7 359 924.3 362 960 368.8C995.7 375.7 1031.3 386.3 1066.8 390.5C1102.3 394.7 1137.7 392.3 1173.2 388.8C1208.7 385.3 1244.3 380.7 1280 373.7C1315.7 366.7 1351.3 357.3 1386.8 365C1422.3 372.7 1457.7 397.3 1493.2 410.8C1528.7 424.3 1564.3 426.7 1600 420.3C1635.7 414 1671.3 399 1706.8 390.2C1742.3 381.3 1777.7 378.7 1813.2 369.7C1848.7 360.7 1884.3 345.3 1902.2 337.7L1920 330L1920 1081L1902.2 1081C1884.3 1081 1848.7 1081 1813.2 1081C1777.7 1081 1742.3 1081 1706.8 1081C1671.3 1081 1635.7 1081 1600 1081C1564.3 1081 1528.7 1081 1493.2 1081C1457.7 1081 1422.3 1081 1386.8 1081C1351.3 1081 1315.7 1081 1280 1081C1244.3 1081 1208.7 1081 1173.2 1081C1137.7 1081 1102.3 1081 1066.8 1081C1031.3 1081 995.7 1081 960 1081C924.3 1081 888.7 1081 853.2 1081C817.7 1081 782.3 1081 746.8 1081C711.3 1081 675.7 1081 640 1081C604.3 1081 568.7 1081 533.2 1081C497.7 1081 462.3 1081 426.8 1081C391.3 1081 355.7 1081 320 1081C284.3 1081 248.7 1081 213.2 1081C177.7 1081 142.3 1081 106.8 1081C71.3 1081 35.7 1081 17.8 1081L0 1081Z" fill="#34af83"></path><path d="M0 437L17.8 437.8C35.7 438.7 71.3 440.3 106.8 450C142.3 459.7 177.7 477.3 213.2 480.5C248.7 483.7 284.3 472.3 320 474.3C355.7 476.3 391.3 491.7 426.8 488.7C462.3 485.7 497.7 464.3 533.2 455.2C568.7 446 604.3 449 640 445C675.7 441 711.3 430 746.8 441.2C782.3 452.3 817.7 485.7 853.2 502.8C888.7 520 924.3 521 960 507.2C995.7 493.3 1031.3 464.7 1066.8 461C1102.3 457.3 1137.7 478.7 1173.2 491.5C1208.7 504.3 1244.3 508.7 1280 496.8C1315.7 485 1351.3 457 1386.8 453C1422.3 449 1457.7 469 1493.2 473.7C1528.7 478.3 1564.3 467.7 1600 472.7C1635.7 477.7 1671.3 498.3 1706.8 493.2C1742.3 488 1777.7 457 1813.2 447C1848.7 437 1884.3 448 1902.2 453.5L1920 459L1920 1081L1902.2 1081C1884.3 1081 1848.7 1081 1813.2 1081C1777.7 1081 1742.3 1081 1706.8 1081C1671.3 1081 1635.7 1081 1600 1081C1564.3 1081 1528.7 1081 1493.2 1081C1457.7 1081 1422.3 1081 1386.8 1081C1351.3 1081 1315.7 1081 1280 1081C1244.3 1081 1208.7 1081 1173.2 1081C1137.7 1081 1102.3 1081 1066.8 1081C1031.3 1081 995.7 1081 960 1081C924.3 1081 888.7 1081 853.2 1081C817.7 1081 782.3 1081 746.8 1081C711.3 1081 675.7 1081 640 1081C604.3 1081 568.7 1081 533.2 1081C497.7 1081 462.3 1081 426.8 1081C391.3 1081 355.7 1081 320 1081C284.3 1081 248.7 1081 213.2 1081C177.7 1081 142.3 1081 106.8 1081C71.3 1081 35.7 1081 17.8 1081L0 1081Z" fill="#3fb18b"></path><path d="M0 546L17.8 553.7C35.7 561.3 71.3 576.7 106.8 587.3C142.3 598 177.7 604 213.2 608.3C248.7 612.7 284.3 615.3 320 609.5C355.7 603.7 391.3 589.3 426.8 571.3C462.3 553.3 497.7 531.7 533.2 529.5C568.7 527.3 604.3 544.7 640 545.8C675.7 547 711.3 532 746.8 538.3C782.3 544.7 817.7 572.3 853.2 571.2C888.7 570 924.3 540 960 542.3C995.7 544.7 1031.3 579.3 1066.8 595.8C1102.3 612.3 1137.7 610.7 1173.2 607.8C1208.7 605 1244.3 601 1280 587.8C1315.7 574.7 1351.3 552.3 1386.8 554.3C1422.3 556.3 1457.7 582.7 1493.2 586.5C1528.7 590.3 1564.3 571.7 1600 560.5C1635.7 549.3 1671.3 545.7 1706.8 540.5C1742.3 535.3 1777.7 528.7 1813.2 525.7C1848.7 522.7 1884.3 523.3 1902.2 523.7L1920 524L1920 1081L1902.2 1081C1884.3 1081 1848.7 1081 1813.2 1081C1777.7 1081 1742.3 1081 1706.8 1081C1671.3 1081 1635.7 1081 1600 1081C1564.3 1081 1528.7 1081 1493.2 1081C1457.7 1081 1422.3 1081 1386.8 1081C1351.3 1081 1315.7 1081 1280 1081C1244.3 1081 1208.7 1081 1173.2 1081C1137.7 1081 1102.3 1081 1066.8 1081C1031.3 1081 995.7 1081 960 1081C924.3 1081 888.7 1081 853.2 1081C817.7 1081 782.3 1081 746.8 1081C711.3 1081 675.7 1081 640 1081C604.3 1081 568.7 1081 533.2 1081C497.7 1081 462.3 1081 426.8 1081C391.3 1081 355.7 1081 320 1081C284.3 1081 248.7 1081 213.2 1081C177.7 1081 142.3 1081 106.8 1081C71.3 1081 35.7 1081 17.8 1081L0 1081Z" fill="#4ab492"></path><path d="M0 626L17.8 629.5C35.7 633 71.3 640 106.8 644C142.3 648 177.7 649 213.2 649.2C248.7 649.3 284.3 648.7 320 645.7C355.7 642.7 391.3 637.3 426.8 631.5C462.3 625.7 497.7 619.3 533.2 630.8C568.7 642.3 604.3 671.7 640 674C675.7 676.3 711.3 651.7 746.8 643.2C782.3 634.7 817.7 642.3 853.2 646.2C888.7 650 924.3 650 960 644.2C995.7 638.3 1031.3 626.7 1066.8 626.2C1102.3 625.7 1137.7 636.3 1173.2 636.8C1208.7 637.3 1244.3 627.7 1280 622.2C1315.7 616.7 1351.3 615.3 1386.8 620.2C1422.3 625 1457.7 636 1493.2 634.2C1528.7 632.3 1564.3 617.7 1600 609.8C1635.7 602 1671.3 601 1706.8 611.3C1742.3 621.7 1777.7 643.3 1813.2 645.7C1848.7 648 1884.3 631 1902.2 622.5L1920 614L1920 1081L1902.2 1081C1884.3 1081 1848.7 1081 1813.2 1081C1777.7 1081 1742.3 1081 1706.8 1081C1671.3 1081 1635.7 1081 1600 1081C1564.3 1081 1528.7 1081 1493.2 1081C1457.7 1081 1422.3 1081 1386.8 1081C1351.3 1081 1315.7 1081 1280 1081C1244.3 1081 1208.7 1081 1173.2 1081C1137.7 1081 1102.3 1081 1066.8 1081C1031.3 1081 995.7 1081 960 1081C924.3 1081 888.7 1081 853.2 1081C817.7 1081 782.3 1081 746.8 1081C711.3 1081 675.7 1081 640 1081C604.3 1081 568.7 1081 533.2 1081C497.7 1081 462.3 1081 426.8 1081C391.3 1081 355.7 1081 320 1081C284.3 1081 248.7 1081 213.2 1081C177.7 1081 142.3 1081 106.8 1081C71.3 1081 35.7 1081 17.8 1081L0 1081Z" fill="#55b799"></path><path d="M0 720L17.8 718.5C35.7 717 71.3 714 106.8 708.8C142.3 703.7 177.7 696.3 213.2 695C248.7 693.7 284.3 698.3 320 709.8C355.7 721.3 391.3 739.7 426.8 741.3C462.3 743 497.7 728 533.2 726.3C568.7 724.7 604.3 736.3 640 739C675.7 741.7 711.3 735.3 746.8 726.8C782.3 718.3 817.7 707.7 853.2 711.3C888.7 715 924.3 733 960 740.8C995.7 748.7 1031.3 746.3 1066.8 740.7C1102.3 735 1137.7 726 1173.2 716.3C1208.7 706.7 1244.3 696.3 1280 701C1315.7 705.7 1351.3 725.3 1386.8 727C1422.3 728.7 1457.7 712.3 1493.2 718.3C1528.7 724.3 1564.3 752.7 1600 767C1635.7 781.3 1671.3 781.7 1706.8 765.3C1742.3 749 1777.7 716 1813.2 713.3C1848.7 710.7 1884.3 738.3 1902.2 752.2L1920 766L1920 1081L1902.2 1081C1884.3 1081 1848.7 1081 1813.2 1081C1777.7 1081 1742.3 1081 1706.8 1081C1671.3 1081 1635.7 1081 1600 1081C1564.3 1081 1528.7 1081 1493.2 1081C1457.7 1081 1422.3 1081 1386.8 1081C1351.3 1081 1315.7 1081 1280 1081C1244.3 1081 1208.7 1081 1173.2 1081C1137.7 1081 1102.3 1081 1066.8 1081C1031.3 1081 995.7 1081 960 1081C924.3 1081 888.7 1081 853.2 1081C817.7 1081 782.3 1081 746.8 1081C711.3 1081 675.7 1081 640 1081C604.3 1081 568.7 1081 533.2 1081C497.7 1081 462.3 1081 426.8 1081C391.3 1081 355.7 1081 320 1081C284.3 1081 248.7 1081 213.2 1081C177.7 1081 142.3 1081 106.8 1081C71.3 1081 35.7 1081 17.8 1081L0 1081Z" fill="#5fb9a0"></path><path d="M0 792L17.8 788.7C35.7 785.3 71.3 778.7 106.8 786.8C142.3 795 177.7 818 213.2 828.5C248.7 839 284.3 837 320 832.5C355.7 828 391.3 821 426.8 815.8C462.3 810.7 497.7 807.3 533.2 803.3C568.7 799.3 604.3 794.7 640 800.8C675.7 807 711.3 824 746.8 827.5C782.3 831 817.7 821 853.2 812.5C888.7 804 924.3 797 960 797.7C995.7 798.3 1031.3 806.7 1066.8 808.5C1102.3 810.3 1137.7 805.7 1173.2 803.7C1208.7 801.7 1244.3 802.3 1280 804.5C1315.7 806.7 1351.3 810.3 1386.8 807.5C1422.3 804.7 1457.7 795.3 1493.2 796C1528.7 796.7 1564.3 807.3 1600 805C1635.7 802.7 1671.3 787.3 1706.8 779.5C1742.3 771.7 1777.7 771.3 1813.2 773C1848.7 774.7 1884.3 778.3 1902.2 780.2L1920 782L1920 1081L1902.2 1081C1884.3 1081 1848.7 1081 1813.2 1081C1777.7 1081 1742.3 1081 1706.8 1081C1671.3 1081 1635.7 1081 1600 1081C1564.3 1081 1528.7 1081 1493.2 1081C1457.7 1081 1422.3 1081 1386.8 1081C1351.3 1081 1315.7 1081 1280 1081C1244.3 1081 1208.7 1081 1173.2 1081C1137.7 1081 1102.3 1081 1066.8 1081C1031.3 1081 995.7 1081 960 1081C924.3 1081 888.7 1081 853.2 1081C817.7 1081 782.3 1081 746.8 1081C711.3 1081 675.7 1081 640 1081C604.3 1081 568.7 1081 533.2 1081C497.7 1081 462.3 1081 426.8 1081C391.3 1081 355.7 1081 320 1081C284.3 1081 248.7 1081 213.2 1081C177.7 1081 142.3 1081 106.8 1081C71.3 1081 35.7 1081 17.8 1081L0 1081Z" fill="#69bca6"></path><path d="M0 922L17.8 922.5C35.7 923 71.3 924 106.8 925.2C142.3 926.3 177.7 927.7 213.2 918.3C248.7 909 284.3 889 320 877.7C355.7 866.3 391.3 863.7 426.8 875.8C462.3 888 497.7 915 533.2 921.7C568.7 928.3 604.3 914.7 640 907.7C675.7 900.7 711.3 900.3 746.8 899C782.3 897.7 817.7 895.3 853.2 890C888.7 884.7 924.3 876.3 960 872.5C995.7 868.7 1031.3 869.3 1066.8 873C1102.3 876.7 1137.7 883.3 1173.2 884.7C1208.7 886 1244.3 882 1280 887C1315.7 892 1351.3 906 1386.8 917.5C1422.3 929 1457.7 938 1493.2 940.5C1528.7 943 1564.3 939 1600 937.7C1635.7 936.3 1671.3 937.7 1706.8 925.3C1742.3 913 1777.7 887 1813.2 885.8C1848.7 884.7 1884.3 908.3 1902.2 920.2L1920 932L1920 1081L1902.2 1081C1884.3 1081 1848.7 1081 1813.2 1081C1777.7 1081 1742.3 1081 1706.8 1081C1671.3 1081 1635.7 1081 1600 1081C1564.3 1081 1528.7 1081 1493.2 1081C1457.7 1081 1422.3 1081 1386.8 1081C1351.3 1081 1315.7 1081 1280 1081C1244.3 1081 1208.7 1081 1173.2 1081C1137.7 1081 1102.3 1081 1066.8 1081C1031.3 1081 995.7 1081 960 1081C924.3 1081 888.7 1081 853.2 1081C817.7 1081 782.3 1081 746.8 1081C711.3 1081 675.7 1081 640 1081C604.3 1081 568.7 1081 533.2 1081C497.7 1081 462.3 1081 426.8 1081C391.3 1081 355.7 1081 320 1081C284.3 1081 248.7 1081 213.2 1081C177.7 1081 142.3 1081 106.8 1081C71.3 1081 35.7 1081 17.8 1081L0 1081Z" fill="#74bfac"></path><path d="M0 1031L17.8 1018.7C35.7 1006.3 71.3 981.7 106.8 973.5C142.3 965.3 177.7 973.7 213.2 972C248.7 970.3 284.3 958.7 320 961.8C355.7 965 391.3 983 426.8 989.8C462.3 996.7 497.7 992.3 533.2 994.5C568.7 996.7 604.3 1005.3 640 1008.5C675.7 1011.7 711.3 1009.3 746.8 1001.5C782.3 993.7 817.7 980.3 853.2 979.5C888.7 978.7 924.3 990.3 960 987.5C995.7 984.7 1031.3 967.3 1066.8 972.7C1102.3 978 1137.7 1006 1173.2 1018.7C1208.7 1031.3 1244.3 1028.7 1280 1014C1315.7 999.3 1351.3 972.7 1386.8 966.5C1422.3 960.3 1457.7 974.7 1493.2 977.8C1528.7 981 1564.3 973 1600 971C1635.7 969 1671.3 973 1706.8 981C1742.3 989 1777.7 1001 1813.2 1000.3C1848.7 999.7 1884.3 986.3 1902.2 979.7L1920 973L1920 1081L1902.2 1081C1884.3 1081 1848.7 1081 1813.2 1081C1777.7 1081 1742.3 1081 1706.8 1081C1671.3 1081 1635.7 1081 1600 1081C1564.3 1081 1528.7 1081 1493.2 1081C1457.7 1081 1422.3 1081 1386.8 1081C1351.3 1081 1315.7 1081 1280 1081C1244.3 1081 1208.7 1081 1173.2 1081C1137.7 1081 1102.3 1081 1066.8 1081C1031.3 1081 995.7 1081 960 1081C924.3 1081 888.7 1081 853.2 1081C817.7 1081 782.3 1081 746.8 1081C711.3 1081 675.7 1081 640 1081C604.3 1081 568.7 1081 533.2 1081C497.7 1081 462.3 1081 426.8 1081C391.3 1081 355.7 1081 320 1081C284.3 1081 248.7 1081 213.2 1081C177.7 1081 142.3 1081 106.8 1081C71.3 1081 35.7 1081 17.8 1081L0 1081Z" fill="#7ec1b2"></path></svg>