<svg width="497" height="368" viewBox="0 0 497 368" fill="none" xmlns="http://www.w3.org/2000/svg">
<path fill-rule="evenodd" clip-rule="evenodd" d="M248.5 105.786C298.208 105.786 340.047 72.6754 352.425 27.6727C356.526 12.7624 368.681 0 384.145 0L477 0C488.046 0 497 8.95431 497 20V348C497 359.046 488.046 368 477 368H20C8.95429 368 0 359.046 0 348L0 20C0 8.9543 8.95431 0 20 0L112.855 0C128.319 0 140.474 12.7624 144.575 27.6727C156.953 72.6754 198.792 105.786 248.5 105.786Z" fill="#f1f5ff"/>
</svg>
